<?xml version="1.0" encoding="UTF-8" standalone="no"?>
<!-- Created with Inkscape (http://www.inkscape.org/) -->

<svg
   xmlns:dc="http://purl.org/dc/elements/1.1/"
   xmlns:cc="http://creativecommons.org/ns#"
   xmlns:rdf="http://www.w3.org/1999/02/22-rdf-syntax-ns#"
   xmlns:svg="http://www.w3.org/2000/svg"
   xmlns="http://www.w3.org/2000/svg"
   xmlns:sodipodi="http://sodipodi.sourceforge.net/DTD/sodipodi-0.dtd"
   xmlns:inkscape="http://www.inkscape.org/namespaces/inkscape"
   width="700"
   height="700"
   id="svg2"
   version="1.1"
   inkscape:version="0.48.4 r9939"
   sodipodi:docname="Volunteering_SVG.svg"
   inkscape:export-filename="C:\Users\dmacdonald\Downloads\volunteering.png"
   inkscape:export-xdpi="100"
   inkscape:export-ydpi="100">
  <defs
     id="defs4" />
  <sodipodi:namedview
     id="base"
     pagecolor="#ffffff"
     bordercolor="#666666"
     borderopacity="1.0"
     inkscape:pageopacity="0.0"
     inkscape:pageshadow="2"
     inkscape:zoom="0.12374369"
     inkscape:cx="813.67564"
     inkscape:cy="261.47934"
     inkscape:document-units="px"
     inkscape:current-layer="layer1"
     showgrid="false"
     inkscape:window-width="1374"
     inkscape:window-height="878"
     inkscape:window-x="58"
     inkscape:window-y="-8"
     inkscape:window-maximized="1" />
  <metadata
     id="metadata7">
    <rdf:RDF>
      <cc:Work
         rdf:about="">
        <dc:format>image/svg+xml</dc:format>
        <dc:type
           rdf:resource="http://purl.org/dc/dcmitype/StillImage" />
        <dc:title />
      </cc:Work>
    </rdf:RDF>
  </metadata>
  <g
     inkscape:label="Layer 1"
     inkscape:groupmode="layer"
     id="layer1"
     transform="translate(0,-352.36218)">
    <rect
       style="fill:#f37320;fill-opacity:1;fill-rule:nonzero;stroke:none"
       id="rect2985"
       width="700"
       height="700"
       x="0"
       y="352.36218" />
    <rect
       style="fill:#aea79f;fill-opacity:1;fill-rule:nonzero;stroke:none"
       id="rect3029"
       width="700"
       height="197.41653"
       x="0"
       y="352.36218" />
    <g
       style="font-size:215.17500305px;font-style:normal;font-weight:normal;line-height:125%;letter-spacing:0px;word-spacing:0px;writing-mode:lr-tb;fill:#ffffff;fill-opacity:1;stroke:none;font-family:Sans"
       id="text3755">
      <path
         d="m 60.930814,523.69071 c -1.720492,0 -2.797417,-0.86022 -3.230777,-2.58068 L 23.061116,382.75135 c -0.288932,-0.8579 -0.182772,-1.68201 0.318481,-2.47234 0.50125,-0.79003 1.255316,-1.3274 2.262201,-1.6121 0.858034,-0.28879 1.682144,-0.18263 2.472332,0.31848 0.790177,0.5014 1.327544,1.25546 1.612106,2.2622 L 60.930814,506.2629 92.345524,381.24759 c 0.284482,-1.00674 0.82185,-1.7608 1.612105,-2.2622 0.79011,-0.50111 1.61422,-0.60727 2.472332,-0.31848 0.862341,0.2847 1.544174,0.82207 2.045502,1.6121 0.501175,0.79033 0.609524,1.61444 0.325048,2.47234 L 64.371723,521.11003 c -0.429062,1.72046 -1.57603,2.58068 -3.440909,2.58068 z"
         style="font-variant:normal;font-stretch:normal;fill:#ffffff;font-family:Ostrich Sans Rounded;-inkscape-font-specification:Ostrich Sans Rounded"
         id="path2990" />
      <path
         d="m 140.84658,523.90741 c -3.44532,0 -6.99676,-0.50235 -10.65434,-1.50704 -3.65763,-1.00469 -6.99237,-2.94075 -10.00425,-5.80817 -3.0119,-2.86742 -5.4503,-6.77565 -7.31521,-11.7247 -1.86493,-4.94902 -2.79739,-11.44012 -2.79738,-19.47332 l 0,-68.21404 c -1e-5,-12.33638 2.51063,-21.80324 7.53191,-28.40064 5.30581,-6.6015 13.05223,-9.90231 23.23927,-9.90246 10.32706,1.5e-4 18.07128,3.30096 23.2327,9.90246 5.16568,6.45293 7.74855,15.9198 7.74861,28.40064 l 0,68.21404 c -6e-5,8.0332 -0.93252,14.5243 -2.79738,19.47332 -1.86498,4.94905 -4.30338,8.85728 -7.31521,11.7247 -3.01194,2.86742 -6.34669,4.80348 -10.00425,5.80817 -3.65765,1.00469 -7.27913,1.50704 -10.86447,1.50704 z m 0,-138.35868 c -8.17766,1.4e-4 -14.13139,2.51077 -17.86121,7.53191 -4.16325,5.30595 -6.24486,13.33911 -6.24485,24.0995 l 0,68.21404 c -1e-5,10.90062 2.0816,19.00382 6.24485,24.30963 3.86991,5.02129 9.82364,7.53192 17.86121,7.53191 7.88866,10e-6 13.91243,-2.51062 18.07134,-7.53191 4.01871,-5.02126 6.0281,-13.12446 6.02815,-24.30963 l 0,-68.21404 c -5e-5,-11.04494 -2.00944,-19.0781 -6.02815,-24.0995 -4.01444,-5.02114 -10.03822,-7.53177 -18.07134,-7.53191 z"
         style="font-variant:normal;font-stretch:normal;fill:#ffffff;font-family:Ostrich Sans Rounded;-inkscape-font-specification:Ostrich Sans Rounded"
         id="path2992" />
      <path
         d="m 235.87871,523.90741 -48.63238,0 c -2.29395,0 -3.44091,-1.14697 -3.44091,-3.44091 l 0,-138.35868 c 0,-0.86228 0.32285,-1.61634 0.96857,-2.2622 0.64572,-0.64558 1.46983,-0.96843 2.47234,-0.96858 0.86241,1.5e-4 1.61647,0.323 2.2622,0.96858 0.64571,0.64586 0.96856,1.39992 0.96857,2.2622 l 0,135.1279 45.40161,0 c 1.00245,10e-6 1.82656,0.32287 2.47234,0.96858 0.64566,0.64572 0.96852,1.39979 0.96857,2.2622 -5e-5,2.29394 -1.14702,3.44091 -3.44091,3.44091 z"
         style="font-variant:normal;font-stretch:normal;fill:#ffffff;font-family:Ostrich Sans Rounded;-inkscape-font-specification:Ostrich Sans Rounded"
         id="path2994" />
      <path
         d="m 276.95948,523.69071 c -3.30085,0 -6.63669,-0.46623 -10.00753,-1.39869 -3.37088,-0.93246 -6.455,-2.72514 -9.25237,-5.37806 -2.79738,-2.65291 -5.09242,-6.27439 -6.8851,-10.86447 -1.79269,-4.59005 -2.68903,-10.54268 -2.68903,-17.85793 l 0,-106.30044 c 0,-0.8579 0.32286,-1.60977 0.96858,-2.25563 0.64571,-0.64558 1.46982,-0.96844 2.47233,-0.96858 0.86241,1.4e-4 1.61648,0.323 2.2622,0.96858 0.64571,0.64586 0.96857,1.39773 0.96858,2.25563 l 0,106.30044 c -1e-5,6.45283 0.71684,11.58026 2.15057,15.38231 1.4337,3.80209 3.22638,6.70672 5.37806,8.71391 2.15164,2.0072 4.51891,3.29754 7.1018,3.87102 2.58284,0.57349 5.09348,0.86023 7.53191,0.86023 2.29391,0 4.73231,-0.28674 7.31521,-0.86023 2.58283,-0.57348 4.9501,-1.86382 7.1018,-3.87102 2.15162,-2.00719 3.94431,-4.91182 5.37807,-8.71391 1.43366,-3.80205 2.15051,-8.92948 2.15056,-15.38231 l 0,-106.30044 c -5e-5,-0.8579 0.32281,-1.60977 0.96858,-2.25563 0.64566,-0.64558 1.39973,-0.96844 2.2622,-0.96858 1.00245,1.4e-4 1.82656,0.323 2.47233,0.96858 0.64566,0.64586 0.96852,1.39773 0.96858,2.25563 l 0,106.30044 c -6e-5,7.31525 -0.86029,13.26788 -2.58068,17.85793 -1.72051,4.59008 -3.97943,8.21156 -6.77675,10.86447 -2.79743,2.65292 -5.88264,4.4456 -9.25565,5.37806 -3.3731,0.93246 -6.70784,1.39869 -10.00425,1.39869 z"
         style="font-variant:normal;font-stretch:normal;fill:#ffffff;font-family:Ostrich Sans Rounded;-inkscape-font-specification:Ostrich Sans Rounded"
         id="path2996" />
      <path
         d="m 382.32091,523.90741 c -1.58043,0 -2.58512,-0.71795 -3.01408,-2.15385 l -49.27592,-122.00123 0,120.71417 c 0,2.29394 -1.14697,3.44091 -3.4409,3.44091 -2.29395,0 -3.44092,-1.14697 -3.44091,-3.44091 l 0,-138.35868 c -10e-6,-1.86478 0.93245,-2.9417 2.79738,-3.23078 1.86491,-0.28441 3.15415,0.43354 3.86774,2.15385 l 49.06578,122.0078 0,-120.93087 c -6e-5,-0.86228 0.3228,-1.61634 0.96858,-2.2622 0.64565,-0.64558 1.46976,-0.96843 2.47233,-0.96858 1.00244,1.5e-4 1.82655,0.323 2.47233,0.96858 0.64565,0.64586 0.96851,1.39992 0.96858,2.2622 l 0,138.35868 c -7e-5,1.86492 -0.93253,3.01189 -2.79738,3.44091 z"
         style="font-variant:normal;font-stretch:normal;fill:#ffffff;font-family:Ostrich Sans Rounded;-inkscape-font-specification:Ostrich Sans Rounded"
         id="path2998" />
      <path
         d="m 468.04157,378.66691 c 1.00243,1.4e-4 1.82654,0.323 2.47233,0.96858 0.64565,0.64586 0.96851,1.39773 0.96858,2.25563 -7e-5,2.29408 -1.14704,3.44105 -3.44091,3.44091 l -31.20458,0 0,134.91777 c -4e-5,1.00251 -0.35792,1.82662 -1.07364,2.47233 -0.7158,0.64572 -1.50489,0.96858 -2.36727,0.96858 -2.29397,0 -3.44094,-1.14697 -3.4409,-3.44091 l 0,-134.91777 -31.41471,0 c -0.86242,1.4e-4 -1.61649,-0.32272 -2.26221,-0.96858 -0.64571,-0.64558 -0.96857,-1.46969 -0.96857,-2.47233 0,-0.8579 0.32286,-1.60977 0.96857,-2.25563 0.64572,-0.64558 1.39979,-0.96844 2.26221,-0.96858 l 69.5011,0 z"
         style="font-variant:normal;font-stretch:normal;fill:#ffffff;font-family:Ostrich Sans Rounded;-inkscape-font-specification:Ostrich Sans Rounded"
         id="path3000" />
      <path
         d="m 489.31085,454.623 0,62.61272 41.9607,0 c 1.00246,10e-6 1.82657,0.32287 2.47234,0.96858 0.64566,0.64572 0.96852,1.39979 0.96857,2.2622 -5e-5,2.29394 -1.14702,3.44091 -3.44091,3.44091 l -45.18491,0 c -2.29832,0 -3.44748,-1.14697 -3.44747,-3.44091 l 0,-138.35868 c -10e-6,-0.86228 0.32285,-1.61634 0.96857,-2.2622 0.64572,-0.64558 1.47201,-0.96843 2.4789,-0.96858 l 45.18491,0 c 1.00246,1.5e-4 1.82657,0.323 2.47234,0.96858 0.64566,0.64586 0.96852,1.39992 0.96857,2.2622 -5e-5,2.29408 -1.14702,3.44105 -3.44091,3.44091 l -41.9607,0 0,62.40259 41.9607,0 c 2.29389,7e-5 3.44086,1.14704 3.44091,3.44091 -5e-5,0.86248 -0.32291,1.61655 -0.96857,2.2622 -0.64577,0.64578 -1.46988,0.96864 -2.47234,0.96857 z"
         style="font-variant:normal;font-stretch:normal;fill:#ffffff;font-family:Ostrich Sans Rounded;-inkscape-font-specification:Ostrich Sans Rounded"
         id="path3002" />
      <path
         d="m 556.55304,454.623 0,62.61272 41.9607,0 c 1.00245,10e-6 1.82656,0.32287 2.47233,0.96858 0.64567,0.64572 0.96853,1.39979 0.96858,2.2622 -5e-5,2.29394 -1.14702,3.44091 -3.44091,3.44091 l -45.18491,0 c -2.29832,0 -3.44748,-1.14697 -3.44748,-3.44091 l 0,-138.35868 c 0,-0.86228 0.32286,-1.61634 0.96858,-2.2622 0.64571,-0.64558 1.47201,-0.96843 2.4789,-0.96858 l 45.18491,0 c 1.00245,1.5e-4 1.82656,0.323 2.47233,0.96858 0.64567,0.64586 0.96853,1.39992 0.96858,2.2622 -5e-5,2.29408 -1.14702,3.44105 -3.44091,3.44091 l -41.9607,0 0,62.40259 41.9607,0 c 2.29389,7e-5 3.44086,1.14704 3.44091,3.44091 -5e-5,0.86248 -0.32291,1.61655 -0.96858,2.2622 -0.64577,0.64578 -1.46988,0.96864 -2.47233,0.96857 z"
         style="font-variant:normal;font-stretch:normal;fill:#ffffff;font-family:Ostrich Sans Rounded;-inkscape-font-specification:Ostrich Sans Rounded"
         id="path3004" />
      <path
         d="m 667.90978,457.84721 c 6.30827,6.02384 9.46244,14.56044 9.4625,25.60982 l 0,36.79277 c -6e-5,2.29394 -1.14703,3.44091 -3.44091,3.44091 -0.8581,0 -1.60997,-0.32286 -2.25563,-0.96858 -0.64578,-0.64571 -0.96864,-1.46982 -0.96858,-2.47233 l 0,-36.79277 c -6e-5,-8.89553 -2.36732,-15.7456 -7.1018,-20.55024 -4.73458,-4.80451 -11.40516,-7.20679 -20.01177,-7.20686 l -19.36497,0 0,64.54987 c -10e-6,2.29394 -1.14697,3.44091 -3.44091,3.44091 -0.86242,0 -1.61648,-0.32286 -2.2622,-0.96858 -0.64572,-0.64571 -0.96857,-1.46982 -0.96857,-2.47233 l 0,-138.35868 c 0,-0.8579 0.32285,-1.60977 0.96857,-2.25563 0.64572,-0.64558 1.39978,-0.96844 2.2622,-0.96858 l 22.80588,0 c 11.47403,1.4e-4 19.9373,3.08426 25.38983,9.25237 5.45243,6.16837 8.17866,15.84975 8.17873,29.04416 -7e-5,13.05453 -2.65517,22.7381 -7.96531,29.05072 -2.29399,2.72741 -5.23365,4.87908 -8.81897,6.45499 1.43147,0.71802 2.75793,1.50711 3.97937,2.36727 1.22134,0.86029 2.40552,1.86389 3.55254,3.01079 z m -43.68116,-8.81897 19.36497,0 c 9.32456,8e-5 16.13851,-2.51056 20.44188,-7.53191 4.15881,-4.73226 6.23824,-12.90988 6.23829,-24.53289 -5e-5,-11.18941 -2.07948,-19.25868 -6.23829,-24.20785 -4.1589,-4.9489 -10.97286,-7.42342 -20.44188,-7.42356 l -19.36497,0 z"
         style="font-variant:normal;font-stretch:normal;fill:#ffffff;font-family:Ostrich Sans Rounded;-inkscape-font-specification:Ostrich Sans Rounded"
         id="path3006" />
    </g>
    <path
       style="fill:#8a0059;fill-opacity:1;stroke:#ffffff;stroke-width:8.1066494;stroke-linecap:butt;stroke-linejoin:miter;stroke-miterlimit:4;stroke-opacity:1;stroke-dasharray:none"
       d="M 5.7764734,1440.9909 107.28386,1012.7265 29.280277,910.03819 49.02802,895.22741 l 49.369349,49.36935 3.949561,-139.22159 27.64684,0 -1.97478,126.38555 7.8991,-1.97476 9.87388,-137.24683 27.64682,0 -3.94953,133.29728 8.88646,4.93694 5.92434,-103.67565 17.77295,5.92432 -3.94954,104.66302 7.8991,0.98741 9.87387,-73.06668 13.82342,9.8739 -7.8991,87.87739 -7.89908,45.41994 -20.73514,22.7099 -67.14232,411.7403 -125.39816857,-1.9747 z"
       id="path3095"
       inkscape:connector-curvature="0" />
    <path
       style="fill:#aea79f;fill-opacity:1;stroke:#ffffff;stroke-width:8.1066494;stroke-linecap:butt;stroke-linejoin:miter;stroke-miterlimit:4;stroke-opacity:1;stroke-dasharray:none"
       d="m 549.23122,1456.5356 69.01841,-450.8362 49.84849,-118.93101 -22.82384,-9.40238 -35.45624,60.14584 -38.63642,-133.81136 -26.76857,6.91308 33.51469,121.87686 -8.14196,0.0631 -43.87873,-130.41795 -26.76856,6.9131 37.15499,128.07525 -7.36969,7.00213 -31.66019,-98.9008 -15.72698,10.18025 29.99502,100.35061 -7.40126,2.93122 -27.8305,-68.27662 -10.91534,13.01678 29.62189,83.11065 19.00538,42.00185 25.75505,16.8036 -107.01669,381.1671 121.35445,31.6497 z"
       id="path3867"
       inkscape:connector-curvature="0"
       sodipodi:nodetypes="ccccccccccccccccccccccccc" />
    <path
       style="fill:#333333;fill-opacity:1;stroke:#ffffff;stroke-width:8.1066494;stroke-linecap:butt;stroke-linejoin:miter;stroke-miterlimit:4;stroke-opacity:1;stroke-dasharray:none"
       d="m 219.81028,1227.6436 167.55898,-405.15704 -92.44585,-89.90664 17.31806,-17.5903 56.18002,41.45454 -16.85765,-138.25374 27.33765,-4.1231 16.89602,125.2666 7.51623,-3.1308 -10.70508,-137.18448 27.33764,-4.12314 15.97416,132.39562 9.52336,3.5564 -9.60377,-103.3998 18.45774,3.2075 11.70369,104.0816 7.95803,-0.2017 -1.13347,-73.7221 15.1414,7.7019 5.29497,88.07264 -1.03698,46.0899 -17.11637,25.5484 -136.03614,415.09424 -124.39013,-15.9905 z"
       id="path3871"
       inkscape:connector-curvature="0"
       sodipodi:nodetypes="ccccccccccccccccccccccccc" />
  </g>
</svg>
